<svg width="1920" height="825" viewBox="0 0 1920 825" fill="none" xmlns="http://www.w3.org/2000/svg">
<g clip-path="url(#clip0_70_150)">
<path d="M80.1743 680.809C51.8049 808.009 14.9042 829.475 -4.1011e-05 824.309L0 423.809L169 423.809C151.212 456.475 108.544 553.609 80.1743 680.809Z" fill="#EF946C" fill-opacity="0.35"/>
<path d="M80.1337 615.345C51.7787 710.145 14.8966 726.144 -3.05646e-05 722.293L0 423.809L168.914 423.809C151.135 448.154 108.489 520.546 80.1337 615.345Z" fill="#EF946C" fill-opacity="0.67"/>
<path d="M80.1337 559.458C51.7787 628.576 14.8966 640.24 -2.22846e-05 637.433L0 419.809L168.914 419.809C151.135 437.559 108.489 490.34 80.1337 559.458Z" fill="#EF946C"/>
<path d="M80.1744 159C51.805 31.8 14.9042 10.3333 2.90147e-05 15.5L0 416L169 416C151.212 383.333 108.544 286.2 80.1744 159Z" fill="#EF946C" fill-opacity="0.35"/>
<path d="M80.1337 224.463C51.7787 129.664 14.8967 113.665 2.1624e-05 117.516L0 416L168.914 416C151.135 391.654 108.489 319.263 80.1337 224.463Z" fill="#EF946C" fill-opacity="0.67"/>
<path d="M80.1337 280.351C51.7787 211.233 14.8967 199.568 1.5766e-05 202.376L0 420L168.914 420C151.135 402.249 108.489 349.469 80.1337 280.351Z" fill="#EF946C"/>
<path d="M1839.83 159.191C1868.2 31.9914 1905.1 10.5247 1920 15.6914L1920 416.191L1751 416.191C1768.79 383.525 1811.46 286.391 1839.83 159.191Z" fill="#EF946C" fill-opacity="0.35"/>
<path d="M1839.87 224.655C1868.22 129.855 1905.1 113.856 1920 117.707L1920 416.191L1751.09 416.191C1768.86 391.846 1811.51 319.454 1839.87 224.655Z" fill="#EF946C" fill-opacity="0.67"/>
<path d="M1839.87 280.542C1868.22 211.424 1905.1 199.76 1920 202.567L1920 420.191L1751.09 420.191C1768.86 402.441 1811.51 349.66 1839.87 280.542Z" fill="#EF946C"/>
<path d="M1839.83 681C1868.2 808.2 1905.1 829.667 1920 824.5L1920 424L1751 424C1768.79 456.667 1811.46 553.8 1839.83 681Z" fill="#EF946C" fill-opacity="0.35"/>
<path d="M1839.87 615.537C1868.22 710.336 1905.1 726.335 1920 722.484L1920 424L1751.09 424C1768.86 448.346 1811.51 520.737 1839.87 615.537Z" fill="#EF946C" fill-opacity="0.67"/>
<path d="M1839.87 559.649C1868.22 628.767 1905.1 640.432 1920 637.624L1920 420L1751.09 420C1768.86 437.751 1811.51 490.531 1839.87 559.649Z" fill="#EF946C"/>
</g>
<defs>
<clipPath id="clip0_70_150">
<rect width="1920" height="825" fill="white"/>
</clipPath>
</defs>
</svg>
